<svg xmlns="http://www.w3.org/2000/svg"><symbol id="close" viewBox="0 0 492 492"><path fill="#fff" d="M300.188 246L484.14 62.04c5.06-5.064 7.852-11.82 7.86-19.024 0-7.208-2.792-13.972-7.86-19.028L468.02 7.872C462.952 2.796 456.196.016 448.984.016c-7.2 0-13.956 2.78-19.024 7.856L246.008 191.82 62.048 7.872C56.988 2.796 50.228.016 43.02.016c-7.2 0-13.96 2.78-19.02 7.856L7.872 23.988c-10.496 10.496-10.496 27.568 0 38.052L191.828 246 7.872 429.952C2.808 435.024.02 441.78.02 448.984c0 7.204 2.788 13.96 7.852 19.028l16.124 16.116c5.06 5.072 11.824 7.856 19.02 7.856 7.208 0 13.968-2.784 19.028-7.856l183.96-183.952 183.952 183.952c5.068 5.072 11.824 7.856 19.024 7.856h.008c7.204 0 13.96-2.784 19.028-7.856l16.12-16.116c5.06-5.064 7.852-11.824 7.852-19.028 0-7.204-2.792-13.96-7.852-19.028L300.188 246z"/></symbol><symbol id="exit" viewBox="0 0 20 20"><path fill="#fff" stroke="#ffffff" d="M13 3v2h2v10h-2v2h4V3h-4zm0 8V9H5.4l4.3-4.3-1.4-1.4L1.6 10l6.7 6.7 1.4-1.4L5.4 11H13z"/></symbol><symbol id="drag" viewBox="0 0 512 512" stroke="#fff"><defs><style>.cls-1,.cls-2{fill:#fff}</style></defs><path fill="#ffffff" d="M227.56 512h206.22A14.22 14.22 0 0 0 448 497.78V456.2a143 143 0 0 1 8.76-49.35l4.53-12.35a131.51 131.51 0 0 0 8-45.37v-56.35c0-22.44-16.92-41.63-38.52-43.69a43.18 43.18 0 0 0-22.34 3.91c-6.25-13.72-19.21-23.78-34.51-25.24a43.24 43.24 0 0 0-20.11 2.92C349 213.89 334.53 201 317 199.31a43.17 43.17 0 0 0-18.37 2.26v-58.13c0-22.44-16.92-41.63-38.52-43.69a42.68 42.68 0 0 0-46.81 42.47v136c-21 2.66-36 11.56-44.45 26.56-23.37 41.29 17 110.88 21.7 118.68q.29.48.61.94c17.16 24.06 22.14 33.74 22.14 51.58v21.84A14.22 14.22 0 0 0 227.56 512zm-33.92-193.26c3.41-6 10-10 19.69-11.78v13a14.22 14.22 0 0 0 28.44 0V142.22a14.23 14.23 0 0 1 15.67-14.15c7.17.68 12.78 7.44 12.78 15.38V256a14.22 14.22 0 0 0 28.44 0v-14.22a14.23 14.23 0 0 1 15.67-14.15c7.17.68 12.78 7.44 12.78 15.38v41.44a14.22 14.22 0 0 0 28.44 0v-14.23a14.23 14.23 0 0 1 15.67-14.15c7.17.68 12.78 7.44 12.78 15.38v34.33a14.22 14.22 0 0 0 28.44 0v-14.22a14.23 14.23 0 0 1 15.67-14.15c7.17.68 12.78 7.44 12.78 15.38v56.35a103.19 103.19 0 0 1-6.31 35.58L430 397.06a171.37 171.37 0 0 0-10.49 59.14v27.35H241.78v-7.62c0-26.54-8.68-41.76-27.09-67.61-14.33-24.13-32.51-69.32-21.05-89.58z" class="cls-1"/><path fill="#ffffff" d="M9.5 49c-.13.19-.24.39-.36.59s-.25.4-.36.61-.2.42-.3.63-.2.42-.29.63-.15.42-.23.63-.17.45-.24.69-.11.43-.16.64-.13.47-.17.71-.08.5-.11.74-.07.42-.09.63q-.07.69-.07 1.38t.07 1.38c0 .21.06.42.09.63s.06.5.11.74.11.47.17.71.1.43.16.64.16.46.24.69.14.42.23.63.19.42.29.63.19.42.3.63.24.4.36.6.23.4.36.59.33.46.5.68.21.29.32.43a14.31 14.31 0 0 0 1 1.07l42.65 42.65A14.22 14.22 0 1 0 74.06 89.5L55.67 71.11h79.44a14.22 14.22 0 1 0 0-28.44H55.67l18.39-18.39A14.22 14.22 0 0 0 53.94 4.17L11.3 46.82a14.32 14.32 0 0 0-1 1.07c-.11.14-.21.29-.32.43s-.32.44-.48.68zm493 15.78c.13-.19.24-.39.36-.59s.25-.4.36-.6.2-.42.3-.63.2-.42.29-.63.15-.42.23-.63.17-.45.24-.69.11-.43.16-.64.13-.47.17-.71.08-.49.11-.74.07-.42.09-.63a14.31 14.31 0 0 0 0-2.81c0-.21-.06-.42-.09-.63s-.06-.5-.11-.74-.11-.47-.17-.71-.1-.43-.16-.64-.16-.46-.24-.69-.14-.42-.23-.63-.19-.42-.29-.63-.19-.42-.3-.63-.24-.4-.36-.61-.23-.39-.36-.59-.33-.46-.51-.69-.21-.29-.32-.43a14.32 14.32 0 0 0-1-1.07L458.06 4.17a14.22 14.22 0 0 0-20.11 20.11l18.39 18.39h-79.45a14.22 14.22 0 1 0 0 28.44h79.44L437.94 89.5a14.22 14.22 0 1 0 20.11 20.11L500.7 67a14.31 14.31 0 0 0 1-1.07c.11-.14.21-.29.32-.43s.32-.5.48-.72zm-346.06 77.44a14.22 14.22 0 1 0 28.44 0 71.11 71.11 0 1 1 142.22 0 14.22 14.22 0 1 0 28.44 0 99.56 99.56 0 1 0-199.11 0z" class="cls-2"/></symbol><symbol id="eraser" viewBox="0 0 24 24"><path fill="#fff" d="M20.25 9.84c0-.46-.18-.9-.51-1.23l-4.35-4.35c-.68-.68-1.78-.68-2.46 0l-8.67 8.67c-.33.33-.51.77-.51 1.23 0 .46.18.9.51 1.23l4.35 4.35c.34.34.78.51 1.23.51.04 0 .09 0 .13-.01h8.04c.41 0 .75-.34.75-.75s-.34-.75-.75-.75h-5.95l7.67-7.67c.33-.33.51-.77.51-1.23h.01zM5.32 14.33a.238.238 0 0 1-.07-.17c0-.04 0-.11.07-.17l3.8-3.8 4.69 4.69-3.8 3.8c-.09.09-.24.09-.34 0l-4.35-4.36v.01zm13.36-4.31l-3.8 3.8-4.69-4.69 3.8-3.8c.09-.09.24-.09.34 0l4.35 4.36c.06.06.07.13.07.17 0 .04 0 .11-.07.17v-.01z"/></symbol><symbol id="home" viewBox="0 0 24 24"><path fill="#fff" fill-rule="evenodd" d="M21.45 10.275L12 3.187l-9.45 7.088.45 1.35h.75v8.625h16.5v-8.625H21l.45-1.35zM5.25 18.75v-8.625L12 5.062l6.75 5.063v8.625H15v-4.417l-.75-.75h-4.5l-.75.75v4.417H5.25zm5.25 0h3v-3.667h-3v3.667z" clip-rule="evenodd"/></symbol><symbol id="plus" viewBox="0 0 24 24"><path stroke="#fff" stroke-linecap="round" stroke-linejoin="round" stroke-width="2" d="M4 12h16m-8-8v16"/></symbol><symbol id="chat" viewBox="0 0 24 24"><path stroke="#fff" stroke-width="1.5" d="M12 22c5.523 0 10-4.477 10-10S17.523 2 12 2 2 6.477 2 12c0 1.6.376 3.112 1.043 4.453.178.356.237.763.134 1.148l-.595 2.226a1.3 1.3 0 0 0 1.591 1.591l2.226-.595a1.634 1.634 0 0 1 1.149.133A9.958 9.958 0 0 0 12 22z"/></symbol><symbol id="up-arrow" viewBox="0 0 24 24"  stroke="#fff" fill="#ffffff"><path stroke="#fff" fill="#fff" fill-rule="evenodd" d="M12 3a1 1 0 0 1 .707.293l7 7a1 1 0 0 1-1.414 1.414L13 6.414V20a1 1 0 1 1-2 0V6.414l-5.293 5.293a1 1 0 0 1-1.414-1.414l7-7A1 1 0 0 1 12 3z" clip-rule="evenodd"/></symbol><symbol id="volume-off" viewBox="0 0 24 24"><path stroke="#fff" stroke-linejoin="round" stroke-width="2" d="M7 9H4v6h3l5 4V5L7 9z"/><path stroke="#fff" stroke-linecap="round" stroke-width="2" d="M16 9.5l5 5m0-5l-5 5"/></symbol><symbol id="edit" viewBox="0 0 24 24"><path fill="#fff" fill-rule="evenodd" d="M20.848 1.879a3 3 0 0 0-4.243 0L2.447 16.036a3 3 0 0 0-.82 1.533l-.587 2.936a2 2 0 0 0 2.353 2.353l2.936-.587a3 3 0 0 0 1.533-.82L22.019 7.293a3 3 0 0 0 0-4.243l-1.171-1.17zm-2.829 1.414a1 1 0 0 1 1.415 0l1.171 1.171a1 1 0 0 1 0 1.415L17.933 8.55l-2.585-2.586 2.671-2.671zm-4.086 4.086L3.862 17.45a1 1 0 0 0-.274.51l-.587 2.936 2.935-.587a1 1 0 0 0 .511-.274L16.52 9.964 13.933 7.38z" clip-rule="evenodd"/></symbol><symbol id="wasd" viewBox="0 0 512 512"><g fill="#fff" stroke="#fff" stroke-width=".1"><path d="M194.7 90.4c-5.5 2-10.3 6.1-13.4 11.4l-2.8 4.7v60c0 60 0 60 2.2 64.1 2.9 5.4 10.1 11.7 15.1 13.2 5.6 1.7 114.8 1.7 120.4 0 5-1.5 12.2-7.8 15.1-13.2 2.2-4.1 2.2-4.1 2.2-64.1v-60l-2.8-4.7c-3.1-5.3-7.9-9.4-13.4-11.4-5.5-1.9-117.1-1.9-122.6 0zM314 104.5c6.2 3.2 6.1 1.9 5.8 63.6l-.3 56.1-3.7 3.4-3.8 3.4H200l-3.8-3.4-3.7-3.4-.3-55.9c-.2-41.5.1-56.5.9-58.7.7-1.5 2.6-3.7 4.3-4.7 2.9-1.8 6.1-1.9 58.4-1.9 47.5 0 55.7.2 58.2 1.5z"/><path d="M204 126c-1.1 1.1-2 3.1-2 4.5s4.5 18.8 10.1 38.8c7.1 25.5 10.7 36.9 12.1 38.4 1.7 1.8 3.3 2.3 6.9 2.3 7.8 0 8.9-1.6 16.7-24.4 3.8-11 7.1-19.5 7.4-19 .3.5 2.9 9.4 5.7 19.9 6.4 23.3 6.5 23.5 17.1 23.5 6.6 0 7.9-.3 9.8-2.3 2.8-3 22.6-73.9 21.7-77.6-1.4-5.4-5.9-7.6-10.5-5.1-2.2 1.2-3.1 3.9-13.1 40.7-4.1 15-7.6 27.3-7.9 27.3-.5 0-2.8-8.3-13.5-49-2.3-8.5-4.7-12-8.5-12-3.1 0-6.8 3.8-7.5 7.8-.9 5.2-16.1 47.7-16.7 46.6-.3-.5-4-13.9-8.4-29.9-4.8-17.9-8.5-29.6-9.6-30.7-2.4-2.4-7.3-2.3-9.8.2zM16.7 268.4c-5.5 2-10.3 6.1-13.4 11.4l-2.8 4.7-.3 58.3c-.2 37.6.1 59.6.8 62.1 1.5 5.6 6.2 11.6 11.7 14.8l4.8 2.8h60c60 0 60 0 64.1-2.2 5.4-2.9 11.7-10.1 13.2-15.1 1.7-5.6 1.7-114.8 0-120.4-1.5-5-7.8-12.2-13.2-15.1-4.1-2.2-4.4-2.2-62.6-2.4-47.1-.2-59.2 0-62.3 1.1zm121.9 16.8l3.4 3.8v112l-3.4 3.8-3.4 3.7-56.1.3c-61.7.3-60.4.4-63.6-5.8-2.3-4.4-2.3-111.6 0-116 3.2-6.1 1.5-6 63.3-5.7l56.4.2 3.4 3.7z"/><path d="M76.3 297.2c-1.2 1.3-3.1 6-4.3 10.8-2.5 10-7.7 25.5-13.2 40-2.2 5.8-5.3 13.9-6.8 18s-3.9 10.7-5.4 14.7c-2.6 6.8-2.6 7.4-1.1 10.2 1.6 3.2 5 4.7 8.2 3.7 2.1-.7 5-5.9 8.6-15.6l2.5-6.5 14-.3 14-.3 2.2 7.3c1.1 4 2.4 8.2 2.7 9.3.9 3.3 4.5 6.5 7.3 6.5 3.1 0 7-3.7 7-6.6 0-1.1-2.7-10.7-6-21.4-7-22.3-13-44.2-16-58-2.3-10.4-4.6-14-9-14-1.5 0-3.6 1-4.7 2.2zm8.6 45.8c1.8 6.3 3.4 12.3 3.7 13.2.5 1.6-.4 1.8-8.9 1.8h-9.4l4.9-13c2.6-7.2 4.8-13.5 4.8-14.2 0-3.2 2 1.7 4.9 12.2zm109.8-74.6c-5.5 2-10.3 6.1-13.4 11.4l-2.8 4.7v121l2.8 4.7c3.1 5.3 7.9 9.4 13.4 11.4 5.5 1.9 117.1 1.9 122.6 0 5.5-2 10.3-6.1 13.4-11.4l2.8-4.7v-121l-2.8-4.7c-3.1-5.3-7.9-9.4-13.4-11.4-5.5-1.9-117.1-1.9-122.6 0zM314 282.5c6.1 3.2 6 2.1 6 62.5s.1 59.3-6 62.5c-4.4 2.3-111.6 2.3-116 0-6.1-3.2-6-2.1-6-62.5 0-60.2-.1-59.3 5.8-62.4 4.1-2.3 111.9-2.3 116.2-.1z"/><path d="M246.4 297.4c-19 8.9-22.5 31.6-7.1 47 3.4 3.4 6 4.9 10.4 6.1 12 3.3 13.7 4.1 15.6 6.7 2.6 3.6 3.4 11.6 1.4 15.4-2.3 4.4-6 7.4-10 8.1-5 .8-7.9-.1-12.7-4.2-5-4.2-8.1-4.4-10.9-.9-3.1 3.9-2.6 6 2.7 11.3 16.3 16.3 42.8 6.4 46.7-17.6.8-5.2-1.7-15.4-5-20.5-3.2-4.8-9.3-8.3-18-10.3-8.8-2-10.8-3.3-13.4-8.8-2.7-5.6-2.7-9.6.2-13.8 5.2-7.8 14.6-8.9 21.7-2.5 4.7 4.2 6.8 4.5 10.4 1.1 3.9-3.6 3.4-7-1.5-11.6-8.4-7.7-20.9-10-30.5-5.5zM375 267.9c-7.8 2.4-15.7 9.9-17.8 16.9-1.7 5.6-1.7 114.8 0 120.4 1.5 5 7.8 12.2 13.2 15.1 4.1 2.2 4.1 2.2 64.1 2.2h60l4.8-2.8c5.5-3.2 10.2-9.2 11.7-14.8.7-2.5 1-24.5.8-62.1l-.3-58.3-2.8-4.7c-3.1-5.3-7.9-9.4-13.4-11.4-3-1-15.6-1.3-60.8-1.3-31.3.1-58.1.4-59.5.8zm117 14.6c6.1 3.2 6 2.1 6 62.5 0 60.5.1 59.3-6 62.5-2.6 1.4-10.2 1.5-59.1 1.3l-56.1-.3-3.4-3.7-3.4-3.8V289.2l2.7-3.2c1.4-1.8 3.6-3.6 4.7-4 1.2-.5 26.8-.9 56.9-.9 47.1-.1 55.2.1 57.7 1.4z"/><path d="M404.3 305.2l-2.3 2.4v75.1l2.4 2.2c2.4 2.2 3 2.3 15.8 1.9 10.3-.4 14.5-.9 18.5-2.5 7.4-2.9 14.7-8.6 19.3-15 5.5-7.8 7.5-14.1 7.5-24.3 0-10.2-2-16.5-7.5-24.3-4.6-6.4-11.9-12.1-19.3-15-4.1-1.6-8.2-2.1-18.7-2.5-13.2-.4-13.5-.4-15.7 2zm32.6 15.3c9.9 5.4 14.6 13.3 14.6 24.5 0 5.8-.5 8.4-2.2 11.6-5.6 10.5-13.4 15.5-25.5 16.2l-7.8.5v-56.6l7.8.5c6.1.3 8.9 1.1 13.1 3.3z"/></g></symbol><symbol id="volume-on" viewBox="0 0 24 24"><path stroke="#fff" stroke-linejoin="round" stroke-width="2" d="M6 9H3v6h3l5 4V5L6 9z"/><path stroke="#fff" stroke-linecap="round" stroke-width="2" d="M18.5 5.5a9.192 9.192 0 0 1 0 13M15 8a5.657 5.657 0 0 1 0 8"/></symbol></svg>